<?xml version="1.0" encoding="UTF-8" standalone="no"?>
<!DOCTYPE svg PUBLIC "-//W3C//DTD SVG 1.1//EN"
 "http://www.w3.org/Graphics/SVG/1.1/DTD/svg11.dtd">
<!-- Generated by graphviz version 15.0.0 (0)
 -->
<!-- Title: AlkaidCoherenceTopology Pages: 1 -->
<svg width="1835pt" height="2828pt"
 viewBox="0.00 0.00 1835.00 2828.00" xmlns="http://www.w3.org/2000/svg" xmlns:xlink="http://www.w3.org/1999/xlink">
<g id="graph0" class="graph" transform="scale(1 1) rotate(0) translate(24.48 2803.1)">
<title>AlkaidCoherenceTopology</title>
<polygon fill="#ffffff" stroke="none" points="-24.48,24.48 -24.48,-2803.1 1810.48,-2803.1 1810.48,24.48 -24.48,24.48"/>
<text xml:space="preserve" text-anchor="middle" x="893" y="-2729.02" font-family="Noto Sans CJK SC Bold" font-size="48.00">Alkaid双hart一致性扩展信号拓扑</text>
<g id="clust1" class="cluster">
<title>cluster_hart0</title>
<path fill="#eff6ff" stroke="#60a5fa" stroke-width="2.6" d="M52,-1742.3C52,-1742.3 630,-1742.3 630,-1742.3 636,-1742.3 642,-1748.3 642,-1754.3 642,-1754.3 642,-2680.12 642,-2680.12 642,-2686.12 636,-2692.12 630,-2692.12 630,-2692.12 52,-2692.12 52,-2692.12 46,-2692.12 40,-2686.12 40,-2680.12 40,-2680.12 40,-1754.3 40,-1754.3 40,-1748.3 46,-1742.3 52,-1742.3"/>
<text xml:space="preserve" text-anchor="middle" x="341" y="-2657.72" font-family="Noto Sans CJK SC Bold" font-size="32.00">hart0私有部分</text>
</g>
<g id="clust3" class="cluster">
<title>cluster_hart1</title>
<path fill="#f0fdf4" stroke="#4ade80" stroke-width="2.6" d="M1188,-1742.3C1188,-1742.3 1766,-1742.3 1766,-1742.3 1772,-1742.3 1778,-1748.3 1778,-1754.3 1778,-1754.3 1778,-2680.12 1778,-2680.12 1778,-2686.12 1772,-2692.12 1766,-2692.12 1766,-2692.12 1188,-2692.12 1188,-2692.12 1182,-2692.12 1176,-2686.12 1176,-2680.12 1176,-2680.12 1176,-1754.3 1176,-1754.3 1176,-1748.3 1182,-1742.3 1188,-1742.3"/>
<text xml:space="preserve" text-anchor="middle" x="1477" y="-2657.72" font-family="Noto Sans CJK SC Bold" font-size="32.00">hart1私有部分</text>
</g>
<g id="clust5" class="cluster">
<title>cluster_control</title>
<path fill="#f8fafc" stroke="#cbd5e1" stroke-width="2.6" d="M662,-1441.25C662,-1441.25 1058,-1441.25 1058,-1441.25 1064,-1441.25 1070,-1447.25 1070,-1453.25 1070,-1453.25 1070,-2348.94 1070,-2348.94 1070,-2354.94 1064,-2360.94 1058,-2360.94 1058,-2360.94 662,-2360.94 662,-2360.94 656,-2360.94 650,-2354.94 650,-2348.94 650,-2348.94 650,-1453.25 650,-1453.25 650,-1447.25 656,-1441.25 662,-1441.25"/>
<text xml:space="preserve" text-anchor="middle" x="772" y="-2326.54" font-family="Noto Sans CJK SC Bold" font-size="32.00">双hart共享控制</text>
</g>
<g id="clust6" class="cluster">
<title>cluster_shared</title>
<path fill="#f8fafc" stroke="#cbd5e1" stroke-width="2.6" d="M614,-336.25C614,-336.25 1236,-336.25 1236,-336.25 1242,-336.25 1248,-342.25 1248,-348.25 1248,-348.25 1248,-540.8 1248,-540.8 1248,-546.8 1242,-552.8 1236,-552.8 1236,-552.8 614,-552.8 614,-552.8 608,-552.8 602,-546.8 602,-540.8 602,-540.8 602,-348.25 602,-348.25 602,-342.25 608,-336.25 614,-336.25"/>
<text xml:space="preserve" text-anchor="middle" x="925" y="-357.1" font-family="Noto Sans CJK SC Bold" font-size="32.00">共享地址空间</text>
</g>
<!-- c0_snoop -->
<g id="node1" class="node">
<title>c0_snoop</title>
<ellipse fill="#ffedd5" stroke="#f97316" stroke-width="2.5" cx="351" cy="-1884.53" rx="170.64" ry="114.23"/>
<text xml:space="preserve" text-anchor="middle" x="351" y="-1922.41" font-family="Noto Sans CJK SC Bold" font-size="30.00" fill="#0f172a">本地失效输入</text>
<text xml:space="preserve" text-anchor="middle" x="351" y="-1878.16" font-family="Noto Sans CJK SC Bold" font-size="30.00" fill="#0f172a">valid + addr</text>
<text xml:space="preserve" text-anchor="middle" x="351" y="-1833.91" font-family="Noto Sans CJK SC Bold" font-size="30.00" fill="#0f172a">来源不是hart0</text>
</g>
<!-- c0_l0 -->
<g id="node2" class="node">
<title>c0_l0</title>
<path fill="#dbeafe" stroke="#3b82f6" stroke-width="2.5" d="M292.41,-2608.87C292.41,-2608.87 79.59,-2608.87 79.59,-2608.87 73.59,-2608.87 67.59,-2602.87 67.59,-2596.87 67.59,-2596.87 67.59,-2415.07 67.59,-2415.07 67.59,-2409.07 73.59,-2403.07 79.59,-2403.07 79.59,-2403.07 292.41,-2403.07 292.41,-2403.07 298.41,-2403.07 304.41,-2409.07 304.41,-2415.07 304.41,-2415.07 304.41,-2596.87 304.41,-2596.87 304.41,-2602.87 298.41,-2608.87 292.41,-2608.87"/>
<text xml:space="preserve" text-anchor="middle" x="186" y="-2565.97" font-family="Noto Sans CJK SC Bold" font-size="30.00" fill="#0f172a">LSU与</text>
<text xml:space="preserve" text-anchor="middle" x="186" y="-2521.72" font-family="Noto Sans CJK SC Bold" font-size="30.00" fill="#0f172a">LSU L0 Cache</text>
<text xml:space="preserve" text-anchor="middle" x="186" y="-2477.47" font-family="Noto Sans CJK SC Bold" font-size="30.00" fill="#0f172a">按组号和标签</text>
<text xml:space="preserve" text-anchor="middle" x="186" y="-2433.22" font-family="Noto Sans CJK SC Bold" font-size="30.00" fill="#0f172a">精确清除</text>
</g>
<!-- c0_snoop&#45;&gt;c0_l0 -->
<g id="edge5" class="edge">
<title>c0_snoop&#45;&gt;c0_l0</title>
<path fill="none" stroke="#f97316" stroke-width="2.8" d="M188.29,-1921.55C188.29,-1921.55 188.29,-2389.84 188.29,-2389.84"/>
<polygon fill="#f97316" stroke="#f97316" stroke-width="2.8" points="185.56,-2389.83 188.29,-2397.64 191.02,-2389.84 185.56,-2389.83"/>
</g>
<!-- c0_dc -->
<g id="node3" class="node">
<title>c0_dc</title>
<path fill="#dbeafe" stroke="#3b82f6" stroke-width="2.5" d="M493.78,-2348.07C493.78,-2348.07 208.22,-2348.07 208.22,-2348.07 202.22,-2348.07 196.22,-2342.07 196.22,-2336.07 196.22,-2336.07 196.22,-2065.77 196.22,-2065.77 196.22,-2059.77 202.22,-2053.77 208.22,-2053.77 208.22,-2053.77 493.78,-2053.77 493.78,-2053.77 499.78,-2053.77 505.78,-2059.77 505.78,-2065.77 505.78,-2065.77 505.78,-2336.07 505.78,-2336.07 505.78,-2342.07 499.78,-2348.07 493.78,-2348.07"/>
<text xml:space="preserve" text-anchor="middle" x="351" y="-2305.17" font-family="Noto Sans CJK SC Bold" font-size="30.00" fill="#0f172a">DCache（可选）</text>
<text xml:space="preserve" text-anchor="middle" x="351" y="-2260.92" font-family="Noto Sans CJK SC Bold" font-size="30.00" fill="#0f172a">写穿透</text>
<text xml:space="preserve" text-anchor="middle" x="351" y="-2216.67" font-family="Noto Sans CJK SC Bold" font-size="30.00" fill="#0f172a">清除目标组的</text>
<text xml:space="preserve" text-anchor="middle" x="351" y="-2172.42" font-family="Noto Sans CJK SC Bold" font-size="30.00" fill="#0f172a">全部路</text>
<text xml:space="preserve" text-anchor="middle" x="351" y="-2128.17" font-family="Noto Sans CJK SC Bold" font-size="30.00" fill="#0f172a">输出AXI4&#45;Full</text>
<text xml:space="preserve" text-anchor="middle" x="351" y="-2083.92" font-family="Noto Sans CJK SC Bold" font-size="30.00" fill="#0f172a">AWATOP / ARATOP</text>
</g>
<!-- c0_snoop&#45;&gt;c0_dc -->
<g id="edge6" class="edge">
<title>c0_snoop&#45;&gt;c0_dc</title>
<path fill="none" stroke="#f97316" stroke-width="2.8" d="M299.4,-1994.3C299.4,-1994.3 299.4,-2040.57 299.4,-2040.57"/>
<polygon fill="#f97316" stroke="#f97316" stroke-width="2.8" points="296.68,-2040.57 299.41,-2048.37 302.14,-2040.57 296.68,-2040.57"/>
</g>
<!-- c0_ic -->
<g id="node4" class="node">
<title>c0_ic</title>
<path fill="#dbeafe" stroke="#3b82f6" stroke-width="2.5" d="M602.03,-2586.74C602.03,-2586.74 365.97,-2586.74 365.97,-2586.74 359.97,-2586.74 353.97,-2580.74 353.97,-2574.74 353.97,-2574.74 353.97,-2437.19 353.97,-2437.19 353.97,-2431.19 359.97,-2425.19 365.97,-2425.19 365.97,-2425.19 602.03,-2425.19 602.03,-2425.19 608.03,-2425.19 614.03,-2431.19 614.03,-2437.19 614.03,-2437.19 614.03,-2574.74 614.03,-2574.74 614.03,-2580.74 608.03,-2586.74 602.03,-2586.74"/>
<text xml:space="preserve" text-anchor="middle" x="484" y="-2543.84" font-family="Noto Sans CJK SC Bold" font-size="30.00" fill="#0f172a">ICache（只读）</text>
<text xml:space="preserve" text-anchor="middle" x="484" y="-2499.59" font-family="Noto Sans CJK SC Bold" font-size="30.00" fill="#0f172a">IMEM写触发</text>
<text xml:space="preserve" text-anchor="middle" x="484" y="-2455.34" font-family="Noto Sans CJK SC Bold" font-size="30.00" fill="#0f172a">全Cache失效</text>
</g>
<!-- c0_snoop&#45;&gt;c0_ic -->
<g id="edge7" class="edge">
<title>c0_snoop&#45;&gt;c0_ic</title>
<path fill="none" stroke="#f97316" stroke-width="2.8" d="M513.71,-1921.55C513.71,-1921.55 513.71,-2412.11 513.71,-2412.11"/>
<polygon fill="#f97316" stroke="#f97316" stroke-width="2.8" points="510.98,-2412.11 513.71,-2419.91 516.44,-2412.11 510.98,-2412.11"/>
</g>
<!-- c1_snoop -->
<g id="node5" class="node">
<title>c1_snoop</title>
<ellipse fill="#ffedd5" stroke="#f97316" stroke-width="2.5" cx="1375" cy="-1884.53" rx="170.64" ry="114.23"/>
<text xml:space="preserve" text-anchor="middle" x="1375" y="-1922.41" font-family="Noto Sans CJK SC Bold" font-size="30.00" fill="#0f172a">本地失效输入</text>
<text xml:space="preserve" text-anchor="middle" x="1375" y="-1878.16" font-family="Noto Sans CJK SC Bold" font-size="30.00" fill="#0f172a">valid + addr</text>
<text xml:space="preserve" text-anchor="middle" x="1375" y="-1833.91" font-family="Noto Sans CJK SC Bold" font-size="30.00" fill="#0f172a">来源不是hart1</text>
</g>
<!-- c0_snoop&#45;&gt;c1_snoop -->
<!-- c0_l0&#45;&gt;c0_dc -->
<!-- c0_l0&#45;&gt;c0_ic -->
<!-- c0_l0&#45;&gt;c0_ic -->
<!-- c0_dc&#45;&gt;c0_snoop -->
<!-- cm -->
<g id="node10" class="node">
<title>cm</title>
<path fill="#fee2e2" stroke="#dc2626" stroke-width="3.1" d="M1032.79,-1715.3C1032.79,-1715.3 687.22,-1715.3 687.22,-1715.3 681.22,-1715.3 675.22,-1709.3 675.22,-1703.3 675.22,-1703.3 675.22,-1477.25 675.22,-1477.25 675.22,-1471.25 681.22,-1465.25 687.22,-1465.25 687.22,-1465.25 1032.79,-1465.25 1032.79,-1465.25 1038.79,-1465.25 1044.79,-1471.25 1044.79,-1477.25 1044.79,-1477.25 1044.79,-1703.3 1044.79,-1703.3 1044.79,-1709.3 1038.79,-1715.3 1032.79,-1715.3"/>
<text xml:space="preserve" text-anchor="middle" x="860" y="-1672.4" font-family="Noto Sans CJK SC Bold" font-size="30.00" fill="#0f172a">数据一致性控制</text>
<text xml:space="preserve" text-anchor="middle" x="860" y="-1628.15" font-family="Noto Sans CJK SC Bold" font-size="30.00" fill="#0f172a">轮换仲裁与共享ID分配</text>
<text xml:space="preserve" text-anchor="middle" x="860" y="-1583.9" font-family="Noto Sans CJK SC Bold" font-size="30.00" fill="#0f172a">读写冲突控制</text>
<text xml:space="preserve" text-anchor="middle" x="860" y="-1539.65" font-family="Noto Sans CJK SC Bold" font-size="30.00" fill="#0f172a">LR/SC与AMO</text>
<text xml:space="preserve" text-anchor="middle" x="860" y="-1495.4" font-family="Noto Sans CJK SC Bold" font-size="30.00" fill="#0f172a">消费AWATOP / ARATOP</text>
</g>
<!-- c0_dc&#45;&gt;cm -->
<g id="edge18" class="edge">
<title>c0_dc&#45;&gt;cm</title>
<path fill="none" stroke="#dc2626" stroke-width="3.2" d="M506.87,-2076C531.38,-2076 548.82,-2076 548.82,-2076 548.82,-2076 548.82,-1590 548.82,-1590 548.82,-1590 661.4,-1590 661.4,-1590"/>
<polygon fill="#dc2626" stroke="#dc2626" stroke-width="3.2" points="661.4,-1592.73 669.2,-1590 661.4,-1587.27 661.4,-1592.73"/>
</g>
<!-- c0_ic&#45;&gt;c0_dc -->
<!-- c1_left_cache -->
<g id="node6" class="node">
<title>c1_left_cache</title>
<path fill="#dcfce7" stroke="#22c55e" stroke-width="2.5" d="M1452.04,-2586.74C1452.04,-2586.74 1215.96,-2586.74 1215.96,-2586.74 1209.96,-2586.74 1203.96,-2580.74 1203.96,-2574.74 1203.96,-2574.74 1203.96,-2437.19 1203.96,-2437.19 1203.96,-2431.19 1209.96,-2425.19 1215.96,-2425.19 1215.96,-2425.19 1452.04,-2425.19 1452.04,-2425.19 1458.04,-2425.19 1464.04,-2431.19 1464.04,-2437.19 1464.04,-2437.19 1464.04,-2574.74 1464.04,-2574.74 1464.04,-2580.74 1458.04,-2586.74 1452.04,-2586.74"/>
<text xml:space="preserve" text-anchor="middle" x="1334" y="-2543.84" font-family="Noto Sans CJK SC Bold" font-size="30.00" fill="#0f172a">ICache（只读）</text>
<text xml:space="preserve" text-anchor="middle" x="1334" y="-2499.59" font-family="Noto Sans CJK SC Bold" font-size="30.00" fill="#0f172a">IMEM写触发</text>
<text xml:space="preserve" text-anchor="middle" x="1334" y="-2455.34" font-family="Noto Sans CJK SC Bold" font-size="30.00" fill="#0f172a">全Cache失效</text>
</g>
<!-- c0_ic&#45;&gt;c1_left_cache -->
<!-- iarb -->
<g id="node9" class="node">
<title>iarb</title>
<path fill="#f1f5f9" stroke="#64748b" stroke-width="2.5" d="M984.8,-2281.69C984.8,-2281.69 735.2,-2281.69 735.2,-2281.69 729.2,-2281.69 723.2,-2275.69 723.2,-2269.69 723.2,-2269.69 723.2,-2132.14 723.2,-2132.14 723.2,-2126.14 729.2,-2120.14 735.2,-2120.14 735.2,-2120.14 984.8,-2120.14 984.8,-2120.14 990.8,-2120.14 996.8,-2126.14 996.8,-2132.14 996.8,-2132.14 996.8,-2269.69 996.8,-2269.69 996.8,-2275.69 990.8,-2281.69 984.8,-2281.69"/>
<text xml:space="preserve" text-anchor="middle" x="860" y="-2238.79" font-family="Noto Sans CJK SC Bold" font-size="30.00" fill="#0f172a">取指读仲裁</text>
<text xml:space="preserve" text-anchor="middle" x="860" y="-2194.54" font-family="Noto Sans CJK SC Bold" font-size="30.00" fill="#0f172a">共享ID分配</text>
<text xml:space="preserve" text-anchor="middle" x="860" y="-2150.29" font-family="Noto Sans CJK SC Bold" font-size="30.00" fill="#0f172a">响应准确回送</text>
</g>
<!-- c0_ic&#45;&gt;iarb -->
<g id="edge20" class="edge">
<title>c0_ic&#45;&gt;iarb</title>
<path fill="none" stroke="#64748b" stroke-width="2.8" d="M604.88,-2424.07C604.88,-2342.08 604.88,-2228 604.88,-2228 604.88,-2228 709.95,-2228 709.95,-2228"/>
<polygon fill="#64748b" stroke="#64748b" stroke-width="2.8" points="709.95,-2230.73 717.75,-2228 709.95,-2225.27 709.95,-2230.73"/>
</g>
<!-- c1_snoop&#45;&gt;c1_left_cache -->
<g id="edge12" class="edge">
<title>c1_snoop&#45;&gt;c1_left_cache</title>
<path fill="none" stroke="#f97316" stroke-width="2.8" d="M1214.93,-1926.27C1214.93,-1926.27 1214.93,-2411.93 1214.93,-2411.93"/>
<polygon fill="#f97316" stroke="#f97316" stroke-width="2.8" points="1212.2,-2411.93 1214.93,-2419.73 1217.66,-2411.93 1212.2,-2411.93"/>
</g>
<!-- c1_dc -->
<g id="node7" class="node">
<title>c1_dc</title>
<path fill="#dcfce7" stroke="#22c55e" stroke-width="2.5" d="M1517.79,-2348.07C1517.79,-2348.07 1232.21,-2348.07 1232.21,-2348.07 1226.21,-2348.07 1220.21,-2342.07 1220.21,-2336.07 1220.21,-2336.07 1220.21,-2065.77 1220.21,-2065.77 1220.21,-2059.77 1226.21,-2053.77 1232.21,-2053.77 1232.21,-2053.77 1517.79,-2053.77 1517.79,-2053.77 1523.79,-2053.77 1529.79,-2059.77 1529.79,-2065.77 1529.79,-2065.77 1529.79,-2336.07 1529.79,-2336.07 1529.79,-2342.07 1523.79,-2348.07 1517.79,-2348.07"/>
<text xml:space="preserve" text-anchor="middle" x="1375" y="-2305.17" font-family="Noto Sans CJK SC Bold" font-size="30.00" fill="#0f172a">DCache（可选）</text>
<text xml:space="preserve" text-anchor="middle" x="1375" y="-2260.92" font-family="Noto Sans CJK SC Bold" font-size="30.00" fill="#0f172a">写穿透</text>
<text xml:space="preserve" text-anchor="middle" x="1375" y="-2216.67" font-family="Noto Sans CJK SC Bold" font-size="30.00" fill="#0f172a">清除目标组的</text>
<text xml:space="preserve" text-anchor="middle" x="1375" y="-2172.42" font-family="Noto Sans CJK SC Bold" font-size="30.00" fill="#0f172a">全部路</text>
<text xml:space="preserve" text-anchor="middle" x="1375" y="-2128.17" font-family="Noto Sans CJK SC Bold" font-size="30.00" fill="#0f172a">输出AXI4&#45;Full</text>
<text xml:space="preserve" text-anchor="middle" x="1375" y="-2083.92" font-family="Noto Sans CJK SC Bold" font-size="30.00" fill="#0f172a">AWATOP / ARATOP</text>
</g>
<!-- c1_snoop&#45;&gt;c1_dc -->
<g id="edge13" class="edge">
<title>c1_snoop&#45;&gt;c1_dc</title>
<path fill="none" stroke="#f97316" stroke-width="2.8" d="M1323.4,-1994.3C1323.4,-1994.3 1323.4,-2040.57 1323.4,-2040.57"/>
<polygon fill="#f97316" stroke="#f97316" stroke-width="2.8" points="1320.68,-2040.57 1323.41,-2048.37 1326.14,-2040.57 1320.68,-2040.57"/>
</g>
<!-- c1_right_cache -->
<g id="node8" class="node">
<title>c1_right_cache</title>
<path fill="#dcfce7" stroke="#22c55e" stroke-width="2.5" d="M1738.41,-2608.87C1738.41,-2608.87 1525.59,-2608.87 1525.59,-2608.87 1519.59,-2608.87 1513.59,-2602.87 1513.59,-2596.87 1513.59,-2596.87 1513.59,-2415.07 1513.59,-2415.07 1513.59,-2409.07 1519.59,-2403.07 1525.59,-2403.07 1525.59,-2403.07 1738.41,-2403.07 1738.41,-2403.07 1744.41,-2403.07 1750.41,-2409.07 1750.41,-2415.07 1750.41,-2415.07 1750.41,-2596.87 1750.41,-2596.87 1750.41,-2602.87 1744.41,-2608.87 1738.41,-2608.87"/>
<text xml:space="preserve" text-anchor="middle" x="1632" y="-2565.97" font-family="Noto Sans CJK SC Bold" font-size="30.00" fill="#0f172a">LSU与</text>
<text xml:space="preserve" text-anchor="middle" x="1632" y="-2521.72" font-family="Noto Sans CJK SC Bold" font-size="30.00" fill="#0f172a">LSU L0 Cache</text>
<text xml:space="preserve" text-anchor="middle" x="1632" y="-2477.47" font-family="Noto Sans CJK SC Bold" font-size="30.00" fill="#0f172a">按组号和标签</text>
<text xml:space="preserve" text-anchor="middle" x="1632" y="-2433.22" font-family="Noto Sans CJK SC Bold" font-size="30.00" fill="#0f172a">精确清除</text>
</g>
<!-- c1_snoop&#45;&gt;c1_right_cache -->
<g id="edge14" class="edge">
<title>c1_snoop&#45;&gt;c1_right_cache</title>
<path fill="none" stroke="#f97316" stroke-width="2.8" d="M1537.71,-1921.55C1537.71,-1921.55 1537.71,-2389.84 1537.71,-2389.84"/>
<polygon fill="#f97316" stroke="#f97316" stroke-width="2.8" points="1534.98,-2389.83 1537.71,-2397.64 1540.44,-2389.84 1534.98,-2389.83"/>
</g>
<!-- c1_left_cache&#45;&gt;c1_dc -->
<!-- c1_left_cache&#45;&gt;c1_right_cache -->
<!-- c1_left_cache&#45;&gt;c1_right_cache -->
<!-- c1_left_cache&#45;&gt;iarb -->
<g id="edge21" class="edge">
<title>c1_left_cache&#45;&gt;iarb</title>
<path fill="none" stroke="#64748b" stroke-width="2.8" d="M1209.65,-2424.24C1209.65,-2333.91 1209.65,-2201 1209.65,-2201 1209.65,-2201 1009.98,-2201 1009.98,-2201"/>
<polygon fill="#64748b" stroke="#64748b" stroke-width="2.8" points="1009.98,-2198.27 1002.18,-2201 1009.98,-2203.73 1009.98,-2198.27"/>
</g>
<!-- c1_dc&#45;&gt;c1_snoop -->
<!-- c1_dc&#45;&gt;cm -->
<g id="edge19" class="edge">
<title>c1_dc&#45;&gt;cm</title>
<path fill="none" stroke="#dc2626" stroke-width="3.2" d="M1218.98,-2098C1187.65,-2098 1164.12,-2098 1164.12,-2098 1164.12,-2098 1164.12,-1590 1164.12,-1590 1164.12,-1590 1058.75,-1590 1058.75,-1590"/>
<polygon fill="#dc2626" stroke="#dc2626" stroke-width="3.2" points="1058.75,-1587.27 1050.95,-1590 1058.75,-1592.73 1058.75,-1587.27"/>
</g>
<!-- c1_right_cache&#45;&gt;c1_dc -->
<!-- snoop_router -->
<g id="node11" class="node">
<title>snoop_router</title>
<path fill="#ffedd5" stroke="#f97316" stroke-width="2.9" d="M1033.91,-1987.43C1033.91,-1987.43 686.09,-1987.43 686.09,-1987.43 680.09,-1987.43 674.09,-1981.43 674.09,-1975.43 674.09,-1975.43 674.09,-1793.63 674.09,-1793.63 674.09,-1787.63 680.09,-1781.63 686.09,-1781.63 686.09,-1781.63 1033.91,-1781.63 1033.91,-1781.63 1039.91,-1781.63 1045.91,-1787.63 1045.91,-1793.63 1045.91,-1793.63 1045.91,-1975.43 1045.91,-1975.43 1045.91,-1981.43 1039.91,-1987.43 1033.91,-1987.43"/>
<text xml:space="preserve" text-anchor="middle" x="860" y="-1944.53" font-family="Noto Sans CJK SC Bold" font-size="30.00" fill="#0f172a">监听失效分发</text>
<text xml:space="preserve" text-anchor="middle" x="860" y="-1900.28" font-family="Noto Sans CJK SC Bold" font-size="30.00" fill="#0f172a">共享侧AW握手产生</text>
<text xml:space="preserve" text-anchor="middle" x="860" y="-1856.03" font-family="Noto Sans CJK SC Bold" font-size="30.00" fill="#0f172a">VALID / OWNER / ADDR</text>
<text xml:space="preserve" text-anchor="middle" x="860" y="-1811.78" font-family="Noto Sans CJK SC Bold" font-size="30.00" fill="#0f172a">只通知另一个CPU</text>
</g>
<!-- iarb&#45;&gt;snoop_router -->
<!-- xbar -->
<g id="node15" class="node">
<title>xbar</title>
<path fill="#e0e7ff" stroke="#4f46e5" stroke-width="2.9" d="M1112.29,-803.35C1112.29,-803.35 607.71,-803.35 607.71,-803.35 601.71,-803.35 595.71,-797.35 595.71,-791.35 595.71,-791.35 595.71,-653.8 595.71,-653.8 595.71,-647.8 601.71,-641.8 607.71,-641.8 607.71,-641.8 1112.29,-641.8 1112.29,-641.8 1118.29,-641.8 1124.29,-647.8 1124.29,-653.8 1124.29,-653.8 1124.29,-791.35 1124.29,-791.35 1124.29,-797.35 1118.29,-803.35 1112.29,-803.35"/>
<text xml:space="preserve" text-anchor="middle" x="860" y="-760.45" font-family="Noto Sans CJK SC Bold" font-size="30.00" fill="#0f172a">Crossbar</text>
<text xml:space="preserve" text-anchor="middle" x="860" y="-716.2" font-family="Noto Sans CJK SC Bold" font-size="30.00" fill="#0f172a">按地址选择从端</text>
<text xml:space="preserve" text-anchor="middle" x="860" y="-671.95" font-family="Noto Sans CJK SC Bold" font-size="30.00" fill="#0f172a">以未完成事务计数保持W、B、R目标</text>
</g>
<!-- iarb&#45;&gt;xbar -->
<g id="edge28" class="edge">
<title>iarb&#45;&gt;xbar</title>
<path fill="none" stroke="#64748b" stroke-width="2.8" d="M709.93,-2174C709.93,-2174 622.12,-2174 622.12,-2174 622.12,-2174 622.12,-816.81 622.12,-816.81"/>
<polygon fill="#64748b" stroke="#64748b" stroke-width="2.8" points="709.93,-2176.73 717.73,-2174 709.93,-2171.27 709.93,-2176.73"/>
<polygon fill="#64748b" stroke="#64748b" stroke-width="2.8" points="624.86,-816.81 622.13,-809.01 619.4,-816.81 624.86,-816.81"/>
</g>
<!-- cm&#45;&gt;snoop_router -->
<g id="edge17" class="edge">
<title>cm&#45;&gt;snoop_router</title>
<path fill="none" stroke="#f97316" stroke-width="3.2" d="M798.4,-1716.77C798.4,-1716.77 798.4,-1767.63 798.4,-1767.63"/>
<polygon fill="#f97316" stroke="#f97316" stroke-width="3.2" points="795.68,-1767.63 798.41,-1775.43 801.14,-1767.63 795.68,-1767.63"/>
</g>
<!-- shared_cache -->
<g id="node12" class="node">
<title>shared_cache</title>
<path fill="#e0f2fe" stroke="#0284c7" stroke-width="2.5" d="M1027.53,-1410.25C1027.53,-1410.25 692.47,-1410.25 692.47,-1410.25 686.47,-1410.25 680.47,-1404.25 680.47,-1398.25 680.47,-1398.25 680.47,-1260.7 680.47,-1260.7 680.47,-1254.7 686.47,-1248.7 692.47,-1248.7 692.47,-1248.7 1027.53,-1248.7 1027.53,-1248.7 1033.53,-1248.7 1039.53,-1254.7 1039.53,-1260.7 1039.53,-1260.7 1039.53,-1398.25 1039.53,-1398.25 1039.53,-1404.25 1033.53,-1410.25 1027.53,-1410.25"/>
<text xml:space="preserve" text-anchor="middle" x="860" y="-1367.35" font-family="Noto Sans CJK SC Bold" font-size="30.00" fill="#0f172a">互连侧AXI4&#45;Lite Cache</text>
<text xml:space="preserve" text-anchor="middle" x="860" y="-1323.1" font-family="Noto Sans CJK SC Bold" font-size="30.00" fill="#0f172a">SoC当前关闭</text>
<text xml:space="preserve" text-anchor="middle" x="860" y="-1278.85" font-family="Noto Sans CJK SC Bold" font-size="30.00" fill="#0f172a">标准AXI4&#45;Full直通</text>
</g>
<!-- cm&#45;&gt;shared_cache -->
<g id="edge24" class="edge">
<title>cm&#45;&gt;shared_cache</title>
<path fill="none" stroke="#0284c7" stroke-width="3.2" d="M860,-1451.43C860,-1451.43 860,-1423.93 860,-1423.93"/>
<polygon fill="#0284c7" stroke="#0284c7" stroke-width="3.2" points="857.27,-1451.43 860,-1459.23 862.73,-1451.43 857.27,-1451.43"/>
<polygon fill="#0284c7" stroke="#0284c7" stroke-width="3.2" points="862.73,-1423.93 860,-1416.13 857.27,-1423.93 862.73,-1423.93"/>
</g>
<!-- snoop_router&#45;&gt;c0_snoop -->
<g id="edge22" class="edge">
<title>snoop_router&#45;&gt;c0_snoop</title>
<path fill="none" stroke="#f97316" stroke-width="3" d="M673,-1885C673,-1885 534.95,-1885 534.95,-1885"/>
<polygon fill="#f97316" stroke="#f97316" stroke-width="3" points="534.95,-1882.27 527.15,-1885 534.95,-1887.73 534.95,-1882.27"/>
</g>
<!-- snoop_router&#45;&gt;c1_snoop -->
<g id="edge23" class="edge">
<title>snoop_router&#45;&gt;c1_snoop</title>
<path fill="none" stroke="#f97316" stroke-width="3" d="M1047.02,-1885C1047.02,-1885 1191,-1885 1191,-1885"/>
<polygon fill="#f97316" stroke="#f97316" stroke-width="3" points="1191,-1887.73 1198.8,-1885 1191,-1882.27 1191,-1887.73"/>
</g>
<!-- snoop_router&#45;&gt;cm -->
<!-- route -->
<g id="node13" class="node">
<title>route</title>
<path fill="#f3e8ff" stroke="#9333ea" stroke-width="2.5" d="M1077.78,-1193.7C1077.78,-1193.7 642.22,-1193.7 642.22,-1193.7 636.22,-1193.7 630.22,-1187.7 630.22,-1181.7 630.22,-1181.7 630.22,-1086.9 630.22,-1086.9 630.22,-1080.9 636.22,-1074.9 642.22,-1074.9 642.22,-1074.9 1077.78,-1074.9 1077.78,-1074.9 1083.78,-1074.9 1089.78,-1080.9 1089.78,-1086.9 1089.78,-1086.9 1089.78,-1181.7 1089.78,-1181.7 1089.78,-1187.7 1083.78,-1193.7 1077.78,-1193.7"/>
<text xml:space="preserve" text-anchor="middle" x="860" y="-1150.05" font-family="Noto Sans CJK SC Bold" font-size="30.00" fill="#0f172a">写地址选择</text>
<text xml:space="preserve" text-anchor="middle" x="860" y="-1105.8" font-family="Noto Sans CJK SC Bold" font-size="30.00" fill="#0f172a">由AWADDR生成6位AWROUTE</text>
</g>
<!-- shared_cache&#45;&gt;route -->
<g id="edge25" class="edge">
<title>shared_cache&#45;&gt;route</title>
<path fill="none" stroke="#0284c7" stroke-width="3" d="M860,-1247.55C860,-1247.55 860,-1207.28 860,-1207.28"/>
<polygon fill="#0284c7" stroke="#0284c7" stroke-width="3" points="862.73,-1207.28 860,-1199.48 857.27,-1207.28 862.73,-1207.28"/>
</g>
<!-- pingpong -->
<g id="node14" class="node">
<title>pingpong</title>
<path fill="#f3e8ff" stroke="#9333ea" stroke-width="2.5" d="M1054.16,-1019.9C1054.16,-1019.9 665.84,-1019.9 665.84,-1019.9 659.84,-1019.9 653.84,-1013.9 653.84,-1007.9 653.84,-1007.9 653.84,-870.35 653.84,-870.35 653.84,-864.35 659.84,-858.35 665.84,-858.35 665.84,-858.35 1054.16,-858.35 1054.16,-858.35 1060.16,-858.35 1066.16,-864.35 1066.16,-870.35 1066.16,-870.35 1066.16,-1007.9 1066.16,-1007.9 1066.16,-1013.9 1060.16,-1019.9 1054.16,-1019.9"/>
<text xml:space="preserve" text-anchor="middle" x="860" y="-977" font-family="Noto Sans CJK SC Bold" font-size="30.00" fill="#0f172a">乒乓缓存</text>
<text xml:space="preserve" text-anchor="middle" x="860" y="-932.75" font-family="Noto Sans CJK SC Bold" font-size="30.00" fill="#0f172a">AW与AWROUTE同时保存</text>
<text xml:space="preserve" text-anchor="middle" x="860" y="-888.5" font-family="Noto Sans CJK SC Bold" font-size="30.00" fill="#0f172a">其余AXI4&#45;Full通道独立缓存</text>
</g>
<!-- route&#45;&gt;pingpong -->
<g id="edge26" class="edge">
<title>route&#45;&gt;pingpong</title>
<path fill="none" stroke="#9333ea" stroke-width="3.1" d="M860,-1073.88C860,-1073.88 860,-1033.62 860,-1033.62"/>
<polygon fill="#9333ea" stroke="#9333ea" stroke-width="3.1" points="862.73,-1033.62 860,-1025.82 857.27,-1033.62 862.73,-1033.62"/>
</g>
<!-- pingpong&#45;&gt;xbar -->
<g id="edge27" class="edge">
<title>pingpong&#45;&gt;xbar</title>
<path fill="none" stroke="#4f46e5" stroke-width="3" d="M860,-844.92C860,-844.92 860,-816.9 860,-816.9"/>
<polygon fill="#4f46e5" stroke="#4f46e5" stroke-width="3" points="857.27,-844.92 860,-852.72 862.73,-844.92 857.27,-844.92"/>
<polygon fill="#4f46e5" stroke="#4f46e5" stroke-width="3" points="862.73,-816.9 860,-809.1 857.27,-816.9 862.73,-816.9"/>
</g>
<!-- imem -->
<g id="node18" class="node">
<title>imem</title>
<path fill="#ffffff" stroke="#64748b" stroke-width="2.5" d="M731.91,-508.67C731.91,-508.67 636.09,-508.67 636.09,-508.67 630.09,-508.67 624.09,-502.67 624.09,-496.67 624.09,-496.67 624.09,-447.62 624.09,-447.62 624.09,-441.62 630.09,-435.62 636.09,-435.62 636.09,-435.62 731.91,-435.62 731.91,-435.62 737.91,-435.62 743.91,-441.62 743.91,-447.62 743.91,-447.62 743.91,-496.67 743.91,-496.67 743.91,-502.67 737.91,-508.67 731.91,-508.67"/>
<text xml:space="preserve" text-anchor="middle" x="684" y="-465.77" font-family="Noto Sans CJK SC Bold" font-size="30.00" fill="#0f172a">IMEM</text>
</g>
<!-- xbar&#45;&gt;imem -->
<g id="edge29" class="edge">
<title>xbar&#45;&gt;imem</title>
<path fill="none" stroke="#4f46e5" stroke-width="2.8" d="M684,-628.54C684,-628.54 684,-521.84 684,-521.84"/>
<polygon fill="#4f46e5" stroke="#4f46e5" stroke-width="2.8" points="681.27,-628.54 684,-636.34 686.73,-628.54 681.27,-628.54"/>
<polygon fill="#4f46e5" stroke="#4f46e5" stroke-width="2.8" points="686.73,-521.84 684,-514.04 681.27,-521.84 686.73,-521.84"/>
</g>
<!-- dmem -->
<g id="node19" class="node">
<title>dmem</title>
<path fill="#ffffff" stroke="#64748b" stroke-width="2.5" d="M913.91,-508.67C913.91,-508.67 806.09,-508.67 806.09,-508.67 800.09,-508.67 794.09,-502.67 794.09,-496.67 794.09,-496.67 794.09,-447.62 794.09,-447.62 794.09,-441.62 800.09,-435.62 806.09,-435.62 806.09,-435.62 913.91,-435.62 913.91,-435.62 919.91,-435.62 925.91,-441.62 925.91,-447.62 925.91,-447.62 925.91,-496.67 925.91,-496.67 925.91,-502.67 919.91,-508.67 913.91,-508.67"/>
<text xml:space="preserve" text-anchor="middle" x="860" y="-465.77" font-family="Noto Sans CJK SC Bold" font-size="30.00" fill="#0f172a">DMEM</text>
</g>
<!-- xbar&#45;&gt;dmem -->
<g id="edge30" class="edge">
<title>xbar&#45;&gt;dmem</title>
<path fill="none" stroke="#4f46e5" stroke-width="2.8" d="M860,-628.54C860,-628.54 860,-521.84 860,-521.84"/>
<polygon fill="#4f46e5" stroke="#4f46e5" stroke-width="2.8" points="857.27,-628.54 860,-636.34 862.73,-628.54 857.27,-628.54"/>
<polygon fill="#4f46e5" stroke="#4f46e5" stroke-width="2.8" points="862.73,-521.84 860,-514.04 857.27,-521.84 862.73,-521.84"/>
</g>
<!-- mmio -->
<g id="node20" class="node">
<title>mmio</title>
<path fill="#ffffff" stroke="#64748b" stroke-width="2.5" d="M1214.16,-530.8C1214.16,-530.8 987.84,-530.8 987.84,-530.8 981.84,-530.8 975.84,-524.8 975.84,-518.8 975.84,-518.8 975.84,-425.5 975.84,-425.5 975.84,-419.5 981.84,-413.5 987.84,-413.5 987.84,-413.5 1214.16,-413.5 1214.16,-413.5 1220.16,-413.5 1226.16,-419.5 1226.16,-425.5 1226.16,-425.5 1226.16,-518.8 1226.16,-518.8 1226.16,-524.8 1220.16,-530.8 1214.16,-530.8"/>
<text xml:space="preserve" text-anchor="middle" x="1101" y="-487.9" font-family="Noto Sans CJK SC Bold" font-size="30.00" fill="#0f172a">调试模块、APB</text>
<text xml:space="preserve" text-anchor="middle" x="1101" y="-443.65" font-family="Noto Sans CJK SC Bold" font-size="30.00" fill="#0f172a">CLINT、PLIC</text>
</g>
<!-- xbar&#45;&gt;mmio -->
<g id="edge31" class="edge">
<title>xbar&#45;&gt;mmio</title>
<path fill="none" stroke="#4f46e5" stroke-width="2.8" d="M1050.06,-628.54C1050.06,-628.54 1050.06,-543.74 1050.06,-543.74"/>
<polygon fill="#4f46e5" stroke="#4f46e5" stroke-width="2.8" points="1047.33,-628.54 1050.06,-636.34 1052.79,-628.54 1047.33,-628.54"/>
<polygon fill="#4f46e5" stroke="#4f46e5" stroke-width="2.8" points="1052.79,-543.74 1050.06,-535.94 1047.33,-543.74 1052.79,-543.74"/>
</g>
<!-- legend -->
<g id="node16" class="node" transform="translate(-600 0)">
<title>legend</title>
<path fill="#f8fafc" stroke="none" stroke-width="2.5" d="M1081.5,-328.25C1081.5,-328.25 638.5,-328.25 638.5,-328.25 632.5,-328.25 626.5,-322.25 626.5,-316.25 626.5,-316.25 626.5,-12 626.5,-12 626.5,-6 632.5,0 638.5,0 638.5,0 1081.5,0 1081.5,0 1087.5,0 1093.5,-6 1093.5,-12 1093.5,-12 1093.5,-316.25 1093.5,-316.25 1093.5,-322.25 1087.5,-328.25 1081.5,-328.25"/>
<text xml:space="preserve" text-anchor="start" x="636.5" y="-290.75" font-family="Noto Sans CJK SC Bold" font-weight="bold" font-size="30.00" fill="#0f172a">图例</text>
<text xml:space="preserve" text-anchor="start" x="636.5" y="-222.62" font-family="Noto Sans CJK SC Bold" font-size="28.00" fill="#dc2626">●</text>
<text xml:space="preserve" text-anchor="start" x="676.25" y="-237.35" font-family="Noto Sans CJK SC Bold" font-weight="bold" font-size="27.00" fill="#0f172a">CPU至数据一致性控制的</text>
<text xml:space="preserve" text-anchor="start" x="744.88" y="-210.35" font-family="Noto Sans CJK SC Bold" font-weight="bold" font-size="27.00" fill="#0f172a">原子操作扩展</text>
<text xml:space="preserve" text-anchor="start" x="636.5" y="-156.62" font-family="Noto Sans CJK SC Bold" font-size="28.00" fill="#f97316">●</text>
<text xml:space="preserve" text-anchor="start" x="676.25" y="-171.35" font-family="Noto Sans CJK SC Bold" font-weight="bold" font-size="27.00" fill="#0f172a">数据一致性控制发往另一个CPU的</text>
<text xml:space="preserve" text-anchor="start" x="798.88" y="-144.35" font-family="Noto Sans CJK SC Bold" font-weight="bold" font-size="27.00" fill="#0f172a">监听失效接口</text>
<text xml:space="preserve" text-anchor="start" x="636.5" y="-90.62" font-family="Noto Sans CJK SC Bold" font-size="28.00" fill="#0284c7">●</text>
<text xml:space="preserve" text-anchor="start" x="676.25" y="-105.35" font-family="Noto Sans CJK SC Bold" font-weight="bold" font-size="27.00" fill="#0f172a">数据一致性控制之后的</text>
<text xml:space="preserve" text-anchor="start" x="725.38" y="-78.35" font-family="Noto Sans CJK SC Bold" font-weight="bold" font-size="27.00" fill="#0f172a">标准AXI4&#45;Full</text>
<text xml:space="preserve" text-anchor="start" x="636.5" y="-24.62" font-family="Noto Sans CJK SC Bold" font-size="28.00" fill="#9333ea">●</text>
<text xml:space="preserve" text-anchor="start" x="676.25" y="-39.35" font-family="Noto Sans CJK SC Bold" font-weight="bold" font-size="27.00" fill="#0f172a">Crossbar内部AWROUTE与</text>
<text xml:space="preserve" text-anchor="start" x="789.5" y="-12.35" font-family="Noto Sans CJK SC Bold" font-weight="bold" font-size="27.00" fill="#0f172a">乒乓缓存</text>
</g>
<!-- legend_spacer -->
<!-- legend_spacer&#45;&gt;legend -->
<!-- dmem&#45;&gt;legend -->
</g>
</svg>
